<?xml version="1.0" encoding="utf-8"?>
<!-- Generator: Adobe Illustrator 16.0.0, SVG Export Plug-In . SVG Version: 6.00 Build 0)  -->
<!DOCTYPE svg PUBLIC "-//W3C//DTD SVG 1.1//EN" "http://www.w3.org/Graphics/SVG/1.1/DTD/svg11.dtd">
<svg version="1.1" id="Layer_1" xmlns="http://www.w3.org/2000/svg" xmlns:xlink="http://www.w3.org/1999/xlink" x="0px" y="0px"
	 width="218.667px" height="40px" viewBox="0 0 218.667 40" enable-background="new 0 0 218.667 40" xml:space="preserve">
<g>
	<path fill="#FFFFFF" d="M11.532,7.421L9.167,6.056L1.47,10.5l2.364,1.365L11.532,7.421z"/>
	<path fill="#FFFFFF" d="M19.205,0.26l-8.277,4.779l2.365,1.366l8.276-4.779L19.205,0.26z"/>
	<path fill="#FFFFFF" d="M23.192,9.388L20.88,8.053L9.056,14.878l2.314,1.337L23.192,9.388z"/>
	<path fill="#FFFFFF" d="M26.792,4.639l-4.139,2.39l2.312,1.335l4.139-2.39L26.792,4.639z"/>
	<path fill="#FFFFFF" d="M19.933,15.697l-2.315-1.338l-4.729,2.731l2.316,1.337L19.933,15.697z"/>
	<path fill="#FFFFFF" d="M30.62,6.85l-11.229,6.485l2.315,1.338l11.23-6.486L30.62,6.85z"/>
	<path fill="#FFFFFF" d="M11.163,12.029L8.85,10.693l-3.522,2.034l2.315,1.337L11.163,12.029z"/>
	<path fill="#FFFFFF" d="M23.064,2.489L10.632,9.666l2.314,1.336l12.429-7.18L23.064,2.489z"/>
	<path fill="#FFFFFF" d="M29.312,12.22l2.316,1.336l5.305-3.064l-2.316-1.336L29.312,12.22z"/>
	<path fill="#FFFFFF" d="M19.2,20.734l10.64-6.146l-2.316-1.337l-10.639,6.145L19.2,20.734z"/>
	<path fill="#FFFFFF" d="M28.073,31.889l-8.868,5.12l-8.868-5.12v2.73l8.868,5.121l8.868-5.121V31.889z"/>
	<path fill="#FFFFFF" d="M36.94,26.77l-7.094,4.097v2.729L36.94,29.5V26.77z"/>
	<path fill="#FFFFFF" d="M1.47,26.77v2.752l7.094,4.074v-2.729L1.47,26.77z"/>
	<path fill="#FFFFFF" d="M24.529,29.189l-5.324,3.057l-5.317-3.053v2.73l5.321,3.072l5.32-3.072V29.189z"/>
	<path fill="#FFFFFF" d="M36.943,22.025l-10.64,6.145v2.73l10.641-6.144L36.943,22.025L36.943,22.025z"/>
	<path fill="#FFFFFF" d="M1.474,22.025v2.746l10.64,6.129v-2.73L1.474,22.025z"/>
	<path fill="#FFFFFF" d="M28.073,22.381l-8.868,5.12l-8.868-5.124v2.734l8.868,5.121l8.868-5.121V22.381z"/>
	<path fill="#FFFFFF" d="M36.94,17.261l-7.094,4.097v2.73l7.094-4.096V17.261z"/>
	<path fill="#FFFFFF" d="M1.47,17.261v2.738l7.094,4.089v-2.73L1.47,17.261z"/>
	<path fill="#FFFFFF" d="M29.846,16.611l-10.641,6.144L7.955,16.26v2.73l11.25,6.496l10.641-6.145V16.611z"/>
	<path fill="#FFFFFF" d="M36.94,12.516l-5.321,3.072v2.73l5.321-3.071V12.516z"/>
	<path fill="#FFFFFF" d="M6.198,15.247c-1.579-0.912-3.151-1.815-4.729-2.731v2.731l4.729,2.729V15.247z"/>
	<rect x="51.701" y="2.008" fill="#FFFFFF" width="0.819" height="35.982"/>
	<path fill="#FFFFFF" d="M129.037,11.364c-0.82,0-1.586,0.111-2.3,0.334c-0.714,0.223-1.336,0.558-1.866,1.005
		c-0.517,0.431-0.927,0.973-1.23,1.627c-0.288,0.638-0.432,1.371-0.432,2.201c0,0.669,0.098,1.244,0.295,1.723
		c0.213,0.463,0.516,0.869,0.912,1.22c0.395,0.351,0.888,0.653,1.479,0.909c0.608,0.239,1.313,0.471,2.118,0.693
		c0.699,0.191,1.322,0.375,1.867,0.551c0.547,0.159,1.01,0.352,1.39,0.574c0.379,0.207,0.668,0.454,0.866,0.74
		c0.197,0.287,0.296,0.646,0.296,1.076c0,0.719-0.272,1.27-0.821,1.651c-0.531,0.367-1.283,0.55-2.253,0.55
		c-0.638,0-1.253-0.072-1.845-0.215c-0.592-0.16-1.139-0.343-1.639-0.55c-0.487-0.224-0.912-0.463-1.276-0.718
		c-0.364-0.256-0.646-0.486-0.843-0.693l-1.185,2.297c0.927,0.749,1.966,1.323,3.12,1.723c1.154,0.383,2.346,0.573,3.575,0.573
		c0.804,0,1.563-0.088,2.276-0.263c0.713-0.191,1.336-0.479,1.867-0.861c0.547-0.397,0.979-0.91,1.299-1.531
		c0.318-0.623,0.479-1.379,0.479-2.272c0-0.781-0.129-1.437-0.389-1.961c-0.256-0.527-0.621-0.965-1.092-1.316
		c-0.455-0.367-1.018-0.67-1.686-0.91c-0.652-0.239-1.374-0.471-2.164-0.694c-0.668-0.175-1.252-0.335-1.753-0.478
		c-0.501-0.16-0.918-0.336-1.252-0.527c-0.334-0.192-0.585-0.415-0.751-0.67c-0.167-0.271-0.25-0.614-0.25-1.029
		c0-0.75,0.258-1.331,0.773-1.746c0.517-0.415,1.276-0.622,2.278-0.622c0.531,0,1.032,0.056,1.503,0.167
		c0.471,0.111,0.896,0.254,1.275,0.431c0.395,0.175,0.736,0.367,1.023,0.574c0.289,0.191,0.51,0.375,0.662,0.55l1.16-2.2
		c-0.697-0.542-1.51-0.997-2.436-1.364C131.177,11.547,130.162,11.364,129.037,11.364L129.037,11.364z M144.46,11.388
		c-1.215,0-2.301,0.247-3.258,0.742c-0.955,0.494-1.768,1.149-2.436,1.962c-0.654,0.797-1.154,1.707-1.504,2.727
		c-0.35,1.005-0.523,2.018-0.523,3.038c0,1.084,0.184,2.153,0.547,3.206c0.379,1.037,0.903,1.97,1.571,2.799
		c0.683,0.813,1.488,1.477,2.414,1.986c0.927,0.512,1.952,0.767,3.075,0.767c0.637,0,1.281-0.087,1.936-0.263
		c0.652-0.176,1.268-0.432,1.844-0.767c0.578-0.335,1.094-0.742,1.549-1.22c0.471-0.494,0.834-1.061,1.093-1.698l-2.118-1.269
		c-0.212,0.496-0.479,0.918-0.796,1.269c-0.319,0.351-0.668,0.646-1.048,0.885c-0.364,0.224-0.76,0.39-1.184,0.503
		c-0.41,0.094-0.805,0.143-1.186,0.143c-0.743,0-1.428-0.167-2.049-0.502c-0.623-0.351-1.162-0.812-1.617-1.387
		c-0.456-0.574-0.812-1.236-1.07-1.985c-0.244-0.75-0.365-1.539-0.365-2.368c0-0.733,0.106-1.467,0.319-2.201
		c0.212-0.734,0.531-1.396,0.956-1.986c0.426-0.59,0.949-1.061,1.572-1.411c0.637-0.367,1.367-0.551,2.188-0.551
		c0.377,0,0.766,0.049,1.16,0.144c0.395,0.08,0.774,0.224,1.139,0.431c0.379,0.208,0.729,0.486,1.049,0.838
		c0.318,0.35,0.584,0.781,0.797,1.292l2.004-1.412c-0.516-1.101-1.298-1.993-2.346-2.679
		C147.14,11.731,145.902,11.388,144.46,11.388L144.46,11.388z M197.39,11.388c-1.215,0-2.299,0.247-3.256,0.742
		c-0.957,0.494-1.77,1.149-2.438,1.962c-0.652,0.797-1.154,1.707-1.503,2.727c-0.349,1.005-0.524,2.018-0.524,3.038
		c0,1.084,0.184,2.153,0.549,3.206c0.379,1.037,0.902,1.97,1.57,2.799c0.684,0.813,1.488,1.477,2.414,1.986
		c0.926,0.512,1.951,0.767,3.074,0.767c0.639,0,1.284-0.087,1.936-0.263c0.654-0.176,1.269-0.432,1.845-0.767
		c0.577-0.335,1.093-0.742,1.549-1.22c0.472-0.494,0.835-1.061,1.093-1.698l-2.117-1.269c-0.213,0.496-0.479,0.918-0.797,1.269
		c-0.318,0.351-0.668,0.646-1.048,0.885c-0.364,0.224-0.759,0.39-1.184,0.503c-0.41,0.094-0.806,0.143-1.185,0.143
		c-0.744,0-1.427-0.167-2.05-0.502c-0.622-0.351-1.161-0.812-1.616-1.387s-0.812-1.236-1.072-1.985
		c-0.242-0.75-0.364-1.539-0.364-2.368c0-0.733,0.106-1.467,0.319-2.201s0.531-1.396,0.957-1.986c0.424-0.59,0.949-1.061,1.57-1.411
		c0.639-0.367,1.366-0.551,2.188-0.551c0.379,0,0.766,0.049,1.162,0.144c0.395,0.08,0.773,0.224,1.139,0.431
		c0.379,0.208,0.729,0.486,1.047,0.838c0.318,0.35,0.584,0.781,0.797,1.292l2.004-1.412c-0.517-1.101-1.298-1.993-2.346-2.679
		C200.071,11.731,198.833,11.388,197.39,11.388L197.39,11.388z M159.359,11.483v16.985h11.092V26.1h-8.541v-5.19h7.219v-2.224
		h-7.219v-4.833h8.336v-2.369H159.359L159.359,11.483z M173.192,11.483v16.985h2.552V16.507l9.154,11.961h2.119V11.507h-2.574
		v12.226l-9.246-12.25H173.192z M206.107,11.483v16.985h11.09V26.1h-8.539v-5.19h7.219v-2.224h-7.219v-4.833h8.334v-2.369H206.107
		L206.107,11.483z M66.583,11.507v16.985h5.375c1.168,0,2.223-0.2,3.165-0.598c0.957-0.416,1.769-0.989,2.437-1.723
		c0.668-0.75,1.176-1.643,1.525-2.68c0.365-1.053,0.546-2.225,0.546-3.517c0-1.164-0.16-2.256-0.478-3.278
		c-0.319-1.036-0.797-1.938-1.434-2.703c-0.638-0.766-1.443-1.372-2.415-1.818c-0.956-0.446-2.071-0.67-3.346-0.67L66.583,11.507
		L66.583,11.507z M87.52,11.507l-6.877,16.985h1.23l2.255-5.598h7.72l2.255,5.598h1.252l-6.878-16.985H87.52z M94.588,11.507v1.101
		h5.921v15.884h1.162V12.608h5.921v-1.101H94.588z M113.718,11.507l-6.878,16.985h1.23l2.256-5.598h7.719l2.254,5.598h1.252
		l-6.877-16.985H113.718z M153.175,11.507v16.961h2.552V11.507H153.175z M67.744,12.608h4.214c1.047,0,1.973,0.183,2.778,0.55
		c0.805,0.367,1.48,0.877,2.027,1.531c0.561,0.654,0.986,1.436,1.274,2.345c0.289,0.893,0.434,1.874,0.434,2.942
		c0,1.053-0.145,2.033-0.434,2.942c-0.273,0.895-0.682,1.675-1.229,2.346c-0.546,0.668-1.23,1.195-2.049,1.577
		c-0.805,0.367-1.738,0.552-2.801,0.552h-4.214V12.608z M87.998,12.991l3.529,8.897H84.4L87.998,12.991z M114.196,12.991
		l3.531,8.897h-7.129L114.196,12.991z"/>
</g>
</svg>
